<svg xmlns="http://www.w3.org/2000/svg" viewBox="0 0 200 100"><g fill="none" stroke="#F35F8A" stroke-width="9" stroke-linecap="round" stroke-linejoin="round"><path d="M20 50 C52 67 76 65 94 48 C116 27 149 38 188 50"/><path d="M92 49 C75 32 80 18 96 17"/><path d="M126 42 C136 28 143 24 148 22"/><path d="M126 22 C116 10 98 19 100 31 C103 43 126 52 126 52 C126 52 149 43 152 31 C154 18 136 10 126 22Z" fill="#F35F8A" stroke="none"/><circle cx="188" cy="50" r="7" fill="none"/></g><circle cx="20" cy="50" r="12" fill="#F35F8A"/><circle cx="20" cy="50" r="5.5" fill="#64243C"/></svg>